<svg xmlns="http://www.w3.org/2000/svg" xmlns:xlink="http://www.w3.org/1999/xlink" viewBox="0 0 108.848 108.745" height="411.005" width="411.396"><defs><linearGradient id="d"><stop offset="0" stop-color="#83e0ee"/><stop offset="1" stop-color="#83e0ee" stop-opacity="0"/></linearGradient><linearGradient id="e"><stop offset="0" stop-color="#28170b"/><stop offset="1" stop-color="#28170b" stop-opacity="0"/></linearGradient><linearGradient id="c"><stop offset="0" stop-color="#203064"/><stop offset="1" stop-color="#203064" stop-opacity="0"/></linearGradient><linearGradient id="b"><stop offset="0" stop-color="#822096"/><stop offset="1" stop-color="#822096" stop-opacity="0"/></linearGradient><linearGradient id="a"><stop offset="0"/><stop offset="1" stop-opacity="0"/></linearGradient><linearGradient spreadMethod="repeat" gradientUnits="userSpaceOnUse" y2="-26.284" x2="-108.953" y1="-26.215" x1="-147.187" id="i" xlink:href="#a"/><linearGradient xlink:href="#a" id="k" x1="67.28" y1="-98.599" x2="103.944" y2="-97.304" gradientUnits="userSpaceOnUse" gradientTransform="translate(-171.899 198.152)"/><linearGradient xlink:href="#a" id="g" x1="23.476" y1="124.252" x2="59.481" y2="123.891" gradientUnits="userSpaceOnUse" gradientTransform="translate(-83.818 -248.09)"/><linearGradient gradientUnits="userSpaceOnUse" y2="-124.199" x2="-24.337" y1="-123.839" x1="-60.343" id="f" xlink:href="#b"/><linearGradient gradientUnits="userSpaceOnUse" y2="-26.284" x2="-108.953" y1="-26.215" x1="-147.187" id="h" xlink:href="#c"/><linearGradient gradientUnits="userSpaceOnUse" y2="99.553" x2="-66.931" y1="99.553" x1="-104.619" id="j" xlink:href="#d"/><radialGradient xlink:href="#e" id="l" cx="89.996" cy="124.712" fx="89.996" fy="124.712" r="4.855" gradientUnits="userSpaceOnUse"/><filter id="m" x="-.018" width="1.035" y="-.02" height="1.039" color-interpolation-filters="sRGB"><feGaussianBlur stdDeviation=".063"/></filter></defs><ellipse cx="-41.499" cy="-123.839" rx="18.651" ry="55.953" transform="rotate(164.625 -5.981 -28.315)" fill="url(#f)" stroke="url(#g)" stroke-width=".386"/><g transform="translate(-19.256 -54.031)"><ellipse cx="-128.344" cy="-26.215" rx="18.651" ry="55.953" transform="rotate(-135.467)" fill="url(#h)" stroke="url(#i)" stroke-width=".386" stroke-opacity=".998"/><path d="M108.642 103.896a3.219 6.14 0 01-3.628 2.854 3.219 6.14 0 01-2.378-5.956 3.219 6.14 0 012.408-5.912 3.219 6.14 0 013.613 2.92" fill="none"/></g><ellipse cx="-85.775" cy="99.553" rx="18.651" ry="55.953" transform="rotate(-74.852 -44.93 -14.435)" fill="url(#j)" stroke="url(#k)" stroke-width=".386"/><path d="M91.991 129.567l-2.339-4.031-4.51 1.171 4.03-2.339-1.17-4.51 2.338 4.03 4.511-1.17-4.031 2.338z" transform="matrix(-.5712 -2.14222 2.17109 -.9896 -165.55 371.18)" fill="url(#l)" opacity=".75" filter="url(#m)"/></svg>